<?xml version="1.0" standalone="no"?>
<!DOCTYPE svg PUBLIC "-//W3C//DTD SVG 20010904//EN"
 "http://www.w3.org/TR/2001/REC-SVG-20010904/DTD/svg10.dtd">
<svg version="1.0" xmlns="http://www.w3.org/2000/svg"
 width="800.000000pt" height="800.000000pt" viewBox="0 0 800.000000 800.000000"
 preserveAspectRatio="xMidYMid meet">
<metadata>
Created by potrace 1.11, written by Peter Selinger 2001-2013
</metadata>
<g transform="translate(0.000000,800.000000) scale(0.100000,-0.100000)"
fill="#000000" stroke="none">
<path d="M0 4071 c0 -3134 3 -3930 13 -3934 9 -4 9 -6 0 -6 -9 -1 -13 -21 -13
-66 l0 -65 4000 0 4000 0 0 1828 0 1828 -182 -3 c-225 -3 -328 5 -328 23 0 10
16 14 53 16 28 1 72 2 97 3 25 2 109 3 188 4 120 0 142 3 142 16 0 8 7 15 15
15 13 0 15 80 15 659 0 593 -2 659 -16 665 -9 3 -20 4 -25 0 -5 -3 -9 -1 -9 4
0 6 11 13 25 16 l25 6 0 1460 0 1460 -4000 0 -4000 0 0 -3929z m6930 3214 c0
-43 -12 -59 -24 -32 -5 9 -7 9 -12 -2 -4 -9 -11 0 -20 24 -16 47 -12 55 27 55
28 0 29 -2 29 -45z m725 -65 c3 -5 1 -10 -4 -10 -6 0 -11 5 -11 10 0 6 2 10 4
10 3 0 8 -4 11 -10z m-5615 -484 c0 -2 -7 -9 -15 -16 -12 -10 -15 -10 -15 4 0
9 7 16 15 16 8 0 15 -2 15 -4z m2427 -2 c-3 -3 -12 -4 -19 -1 -8 3 -5 6 6 6
11 1 17 -2 13 -5z m-3006 -27 c-13 -13 -26 -3 -16 12 3 6 11 8 17 5 6 -4 6
-10 -1 -17z m804 13 c3 -5 1 -10 -4 -10 -6 0 -11 5 -11 10 0 6 2 10 4 10 3 0
8 -4 11 -10z m739 -11 c16 -15 -4 -24 -24 -11 -11 7 -29 12 -40 12 -12 0 -18
4 -15 11 7 11 64 3 79 -12z m2236 11 c0 -5 -4 -10 -9 -10 -6 0 -13 5 -16 10
-3 6 1 10 9 10 9 0 16 -4 16 -10z m-3092 -23 c9 -10 4 -12 -23 -9 -19 2 -32 8
-29 13 8 13 40 11 52 -4z m5022 -7 c0 -5 -4 -10 -10 -10 -5 0 -10 5 -10 10 0
6 5 10 10 10 6 0 10 -4 10 -10z m-6063 -6 c-3 -3 -12 -4 -19 -1 -8 3 -5 6 6 6
11 1 17 -2 13 -5z m6867 -101 c-8 -32 -12 -39 -19 -31 -9 8 6 58 16 58 5 0 6
-12 3 -27z m-134 -3 c0 -5 -4 -10 -10 -10 -5 0 -10 5 -10 10 0 6 5 10 10 10 6
0 10 -4 10 -10z m-10 -23 c9 -3 4 -6 -12 -6 -21 -1 -26 3 -21 15 3 9 9 11 12
6 3 -5 13 -12 21 -15z m-2385 -337 c-3 -5 -11 -10 -16 -10 -6 0 -7 5 -4 10 3
6 11 10 16 10 6 0 7 -4 4 -10z m42 -6 c-3 -3 -12 -4 -19 -1 -8 3 -5 6 6 6 11
1 17 -2 13 -5z m-4854 -211 c-7 -2 -21 -2 -30 0 -10 3 -4 5 12 5 17 0 24 -2
18 -5z m-50 -260 c-7 -2 -19 -2 -25 0 -7 3 -2 5 12 5 14 0 19 -2 13 -5z m6164
-121 c13 -8 17 -29 15 -73 -2 -22 -6 -25 -32 -21 -28 4 -30 7 -30 46 0 55 14
69 47 48z m946 -64 c2 -27 0 -48 -5 -48 -9 0 -11 9 -12 67 -1 56 11 41 17 -19z
m287 17 c0 -9 -6 -12 -15 -9 -8 4 -15 10 -15 15 0 5 7 9 15 9 8 0 15 -7 15
-15z m-772 -397 c2 -41 -1 -60 -13 -72 -15 -15 -15 -16 0 -16 9 0 14 -4 11 -9
-3 -4 -17 -6 -32 -3 -14 2 -21 8 -15 11 8 5 8 22 2 57 -8 39 -6 54 5 72 23 36
39 21 42 -40z m632 -4 c0 -52 -1 -54 -25 -50 -13 3 -29 7 -35 11 -15 9 -12 35
5 41 8 4 15 17 15 29 0 22 17 37 33 28 4 -2 7 -29 7 -59z m-1260 1 c0 -8 -4
-15 -10 -15 -5 0 -10 7 -10 15 0 8 5 15 10 15 6 0 10 -7 10 -15z m497 -17 c-3
-21 1 -39 9 -49 11 -12 12 -23 5 -43 -9 -21 -17 -26 -43 -26 -48 0 -54 8 -50
77 4 58 5 62 30 66 55 8 55 9 49 -25z m-1342 -8 c-3 -5 -12 -10 -18 -10 -7 0
-6 4 3 10 19 12 23 12 15 0z m-5056 -57 c2 -2 -10 -3 -29 -3 -28 0 -31 2 -20
15 10 12 16 13 29 3 9 -7 18 -14 20 -15z m6078 17 c15 0 15 -24 -2 -90 -2 -8
-4 -19 -4 -23 -1 -5 -13 -7 -28 -5 -26 3 -28 6 -30 58 -2 55 9 75 35 65 8 -3
21 -5 29 -5z m146 3 c4 -3 -5 -12 -19 -20 -36 -18 -40 -16 -19 7 19 21 28 24
38 13z m-318 -43 c3 -5 -1 -10 -10 -10 -9 0 -13 5 -10 10 3 6 8 10 10 10 2 0
7 -4 10 -10z m-5916 -66 c-10 -12 -14 -12 -20 -2 -4 7 -3 16 4 20 18 11 29 -2
16 -18z m881 11 c0 -8 -4 -15 -10 -15 -5 0 -10 7 -10 15 0 8 5 15 10 15 6 0
10 -7 10 -15z m-320 -15 c0 -5 -9 -10 -20 -10 -11 0 -20 5 -20 10 0 6 9 10 20
10 11 0 20 -4 20 -10z m868 -27 c3 -17 -3 -22 -35 -27 -21 -4 -69 -3 -108 2
-38 5 -88 7 -110 5 -22 -2 -46 1 -54 6 -29 19 2 29 95 30 53 0 99 3 102 6 4 3
29 5 57 3 42 -3 50 -6 53 -25z m-373 -3 c0 -18 -33 -26 -47 -12 -6 6 -7 15 -3
22 10 16 50 8 50 -10z m-829 -5 c15 -12 16 -16 6 -23 -18 -12 -423 -22 -442
-12 -27 15 36 30 133 31 51 1 119 5 152 9 98 12 130 11 151 -5z m-89 -347 c6
-7 61 -142 124 -300 l114 -287 33 -1 32 0 0 300 0 300 115 0 115 0 0 -360 c0
-233 4 -360 10 -360 6 0 10 -51 10 -134 l0 -135 -42 -3 c-39 -3 -43 -6 -46
-30 -3 -27 -2 -28 42 -28 l46 0 0 -80 0 -80 -165 0 -164 0 -3 103 -3 102 -30
3 c-30 3 -33 8 -113 207 l-82 205 0 100 c0 82 -3 100 -15 100 -13 0 -15 -42
-15 -320 l0 -320 -25 0 -25 0 0 -110 0 -110 -105 0 -105 0 0 240 c0 239 0 240
21 240 l22 0 -7 375 c-4 206 -5 379 -1 385 9 15 250 13 262 -2z m1357 -333
c79 -265 105 -340 119 -343 12 -3 17 -13 17 -39 0 -31 2 -34 16 -22 10 8 12
15 5 17 -19 6 -12 22 9 22 22 0 27 -24 8 -36 -8 -5 -6 -10 8 -15 15 -6 12 -8
-13 -8 -32 -1 -33 -2 -33 -46 0 -42 2 -45 26 -45 20 0 25 -4 20 -16 -3 -9 -6
-22 -6 -30 0 -8 -4 -14 -10 -14 -5 0 -10 9 -10 20 0 11 -4 20 -10 20 -16 0
-12 -50 6 -67 13 -14 17 -14 25 -2 7 12 9 12 9 -1 0 -17 -17 -47 -23 -40 -2 3
-9 14 -15 25 -9 16 -11 5 -12 -57 l0 -78 -40 0 c-33 0 -40 -3 -40 -20 0 -17 7
-20 40 -20 l40 0 0 -40 0 -40 -115 0 -115 0 0 125 0 125 -145 0 -145 0 0 -55
0 -55 -55 0 -55 0 0 -90 0 -90 -102 0 -103 0 3 90 3 90 45 0 44 0 0 178 c1
139 4 181 15 196 10 13 12 23 5 31 -8 9 -4 13 15 13 13 0 22 -4 19 -9 -8 -13
7 -53 15 -43 4 5 54 168 112 362 l104 352 109 -2 108 -3 102 -340z m906 240
l0 -105 -120 0 -120 0 0 -435 0 -435 56 0 c73 0 70 -24 -4 -28 l-52 -3 0 -45
c0 -44 0 -44 -35 -44 -28 0 -35 -4 -35 -20 0 -15 7 -20 25 -20 14 0 25 -4 25
-10 0 -6 -45 -10 -115 -10 l-115 0 0 525 0 525 -125 0 -125 0 0 105 0 105 370
0 370 0 0 -105z m670 0 l0 -105 -185 0 -185 0 0 -135 0 -135 166 0 166 0 -4
-70 c-2 -38 0 -70 5 -70 4 0 7 -15 5 -32 l-3 -33 -142 -3 -143 -3 0 -124 0
-124 -37 -3 c-52 -4 -56 -28 -4 -28 l41 0 0 -40 0 -40 108 1 c59 1 97 4 85 6
-17 3 -23 11 -23 29 0 21 4 25 23 22 16 -2 23 -11 25 -30 3 -26 6 -28 53 -28
37 0 49 -4 49 -15 0 -8 -4 -15 -10 -15 -6 0 -10 -32 -10 -75 l0 -75 -195 0
c-167 0 -195 -2 -195 -15 0 -12 -17 -15 -90 -15 l-90 0 0 225 c0 193 -2 225
-15 225 -12 0 -15 16 -15 80 l0 80 -100 0 c-82 0 -100 3 -100 15 0 12 18 15
100 15 l100 0 0 310 0 310 310 0 310 0 0 -105z m291 83 c0 -13 15 -153 32
-313 l32 -290 32 -3 c38 -4 35 -20 63 318 11 135 23 260 26 278 l5 32 149 0
c147 0 150 0 154 -22 5 -21 56 -598 56 -625 0 -9 16 -13 49 -13 59 0 48 -40
92 363 l33 297 118 0 c112 0 118 -1 118 -20 0 -21 -76 -537 -85 -577 -5 -23
-4 -23 95 -23 l100 0 0 310 0 310 310 0 310 0 0 -105 0 -105 -185 0 -185 0 0
-135 0 -135 166 0 166 0 -4 -70 c-2 -38 0 -70 5 -70 4 0 7 -15 5 -32 l-3 -33
-142 -3 -143 -3 0 -124 0 -124 -37 -3 c-52 -4 -56 -28 -4 -28 l41 0 0 -40 0
-40 108 1 c59 1 97 4 85 6 -17 3 -23 11 -23 29 0 21 4 25 23 22 16 -2 23 -11
25 -30 3 -26 6 -28 53 -28 37 0 49 -4 49 -15 0 -8 -4 -15 -10 -15 -6 0 -10
-32 -10 -75 l0 -75 -195 0 c-167 0 -195 -2 -195 -15 0 -12 -17 -15 -90 -15
l-90 0 0 225 c0 193 -2 225 -15 225 -12 0 -15 16 -15 80 l0 80 -98 0 c-63 0
-102 -4 -110 -12 -7 -7 -12 -38 -12 -70 l0 -58 -90 0 c-72 0 -90 -3 -90 -15 0
-11 16 -15 68 -17 l67 -3 3 -92 3 -93 -71 0 -70 0 0 -85 c0 -78 -2 -85 -20
-85 -16 0 -20 -7 -20 -35 l0 -35 -75 0 -75 0 0 205 0 205 -50 0 -50 0 0 83 c0
97 -30 378 -40 372 -15 -10 -23 -162 -21 -422 l3 -272 -74 -3 -73 -3 -3 -87
-3 -88 -89 0 -89 0 -3 88 -3 87 -32 3 -33 3 0 92 c0 51 -3 142 -7 204 -6 111
-6 112 -32 115 l-25 3 -48 310 c-26 171 -48 320 -48 333 0 22 2 22 120 22 118
0 120 0 121 -22z m2453 -323 c79 -265 105 -340 119 -343 12 -3 17 -13 17 -39
0 -31 2 -34 16 -22 10 8 12 15 5 17 -19 6 -12 22 9 22 22 0 27 -24 8 -36 -8
-5 -6 -10 8 -15 15 -6 12 -8 -13 -8 -32 -1 -33 -2 -33 -46 0 -42 2 -45 26 -45
20 0 25 -4 20 -16 -3 -9 -6 -22 -6 -30 0 -8 -4 -14 -10 -14 -5 0 -10 9 -10 20
0 11 -4 20 -10 20 -16 0 -12 -50 6 -67 13 -14 17 -14 25 -2 7 12 9 12 9 -1 0
-17 -17 -47 -23 -40 -2 3 -9 14 -15 25 -9 16 -11 5 -12 -57 l0 -78 -40 0 c-33
0 -40 -3 -40 -20 0 -17 7 -20 40 -20 l40 0 0 -40 0 -40 -115 0 -115 0 0 125 0
125 -145 0 -145 0 0 -55 0 -55 -55 0 -55 0 0 -90 0 -90 -102 0 -103 0 3 90 3
90 45 0 44 0 -2 178 -3 177 -82 3 c-65 2 -83 6 -83 17 0 12 17 15 85 15 74 0
85 -2 85 -17 1 -16 2 -16 15 1 10 13 12 23 5 31 -8 9 -4 13 15 13 13 0 22 -4
19 -9 -8 -13 7 -53 15 -43 4 5 54 168 112 362 l104 352 109 -2 108 -3 102
-340z m531 100 l49 -245 28 0 c23 0 28 -4 28 -25 0 -22 -4 -25 -35 -25 l-35 0
0 -110 c0 -89 3 -112 15 -116 11 -5 15 -21 15 -60 l0 -54 40 0 40 0 0 85 c0
50 4 85 10 85 6 0 10 35 10 84 l0 85 28 3 c33 4 38 39 7 48 -20 5 -20 10 30
247 l50 243 133 0 c104 0 132 -3 132 -13 0 -8 -31 -151 -70 -318 -64 -279 -70
-312 -70 -416 l0 -112 -37 -3 c-30 -2 -38 -7 -38 -23 0 -14 8 -21 28 -23 26
-3 27 -5 27 -63 l0 -59 -50 0 -50 0 0 -115 0 -115 -155 0 -155 0 -10 26 c-6
14 -10 36 -10 50 0 21 5 24 35 24 31 0 35 3 35 25 0 23 -4 25 -45 25 -38 0
-45 3 -50 23 -2 12 -45 195 -94 407 -50 212 -106 451 -124 533 l-34 147 136 0
136 0 50 -245z m-5995 55 c0 -5 -9 -10 -20 -10 -11 0 -20 5 -20 10 0 6 9 10
20 10 11 0 20 -4 20 -10z m-960 -10 c0 -5 -9 -10 -21 -10 -11 0 -17 5 -14 10
3 6 13 10 21 10 8 0 14 -4 14 -10z m398 -189 c3 -18 -2 -21 -37 -21 -32 0 -39
-3 -35 -15 4 -10 0 -15 -14 -15 -11 0 -23 7 -26 16 -3 9 -12 14 -19 11 -7 -3
-29 2 -48 10 l-34 16 39 11 c21 7 68 11 105 10 58 -2 66 -5 69 -23z m-218 5
c0 -9 -40 -13 -46 -5 -3 5 6 9 20 9 14 0 26 -2 26 -4z m2107 -182 c-3 -3 -12
-4 -19 -1 -8 3 -5 6 6 6 11 1 17 -2 13 -5z m-2302 -63 c-3 -6 -14 -11 -23 -11
-15 1 -15 2 2 15 21 16 32 13 21 -4z m405 4 c0 -9 -9 -15 -25 -15 -24 0 -32
10 -18 23 12 13 43 7 43 -8z m1110 -80 c0 -12 -16 -15 -85 -15 -69 0 -85 3
-85 15 0 12 16 15 85 15 69 0 85 -3 85 -15z m2362 6 c7 11 8 9 6 -6 -4 -24
-22 -23 -25 2 -2 11 0 13 3 4 5 -11 8 -11 16 0z m4036 -13 c-5 -15 -158 -24
-158 -10 0 18 15 22 88 22 54 0 73 -3 70 -12z m-4047 -60 c1 -22 1 -22 9 2 7
22 8 22 9 4 1 -11 -2 -24 -6 -27 -9 -9 -33 12 -33 29 0 24 20 15 21 -8z
m-1555 -45 c2 -13 -1 -23 -6 -23 -6 0 -10 6 -10 13 0 7 -7 4 -15 -7 -14 -19
-15 -18 -15 13 0 27 3 32 22 29 13 -2 22 -12 24 -25z m4320 0 c2 -13 -1 -23
-6 -23 -6 0 -10 6 -10 13 0 7 -7 4 -15 -7 -14 -19 -15 -18 -15 13 0 27 3 32
22 29 13 -2 22 -12 24 -25z m-2746 -20 c0 -20 -3 -24 -9 -14 -5 7 -14 10 -20
7 -7 -5 -11 1 -11 13 0 14 6 21 20 21 15 0 20 -7 20 -27z m-3 -46 c0 -7 -6
-18 -14 -25 -11 -10 -13 -8 -13 13 0 14 6 25 13 25 8 0 14 -6 14 -13z m3 -78
c0 -23 -28 -26 -37 -3 -6 16 15 37 29 28 4 -3 8 -14 8 -25z m-2093 -40 c-18
-10 -18 -11 0 -25 16 -12 14 -12 -16 -2 -32 10 -33 12 -16 25 11 7 26 13 34
13 13 -1 12 -3 -2 -11z m1637 0 c-3 -5 0 -16 6 -24 8 -9 8 -15 2 -15 -6 0 -13
6 -15 13 -4 9 -8 8 -16 -3 -9 -12 -11 -10 -11 10 0 19 6 26 20 27 11 1 18 -3
14 -8z m86 -16 c0 -23 -2 -25 -11 -13 -8 11 -12 12 -16 3 -8 -22 -23 -14 -23
12 0 20 5 25 25 25 21 0 25 -5 25 -27z m1894 16 c-3 -5 0 -16 6 -24 8 -9 8
-15 2 -15 -6 0 -13 6 -15 13 -4 9 -8 8 -16 -3 -9 -12 -11 -10 -11 10 0 19 6
26 20 27 11 1 18 -3 14 -8z m86 -16 c0 -23 -2 -25 -11 -13 -8 11 -12 12 -16 3
-8 -22 -23 -14 -23 12 0 20 5 25 25 25 21 0 25 -5 25 -27z m617 16 c-18 -10
-18 -11 0 -25 16 -12 14 -12 -16 -2 -32 10 -33 12 -16 25 11 7 26 13 34 13 13
-1 12 -3 -2 -11z m-2228 -24 c0 -11 -3 -14 -6 -7 -4 10 -8 10 -19 1 -11 -9
-14 -8 -14 8 0 12 7 19 20 19 14 0 20 -7 19 -21z m-2391 -14 c9 -27 8 -29 -14
-27 -27 1 -29 8 -14 37 14 25 16 24 28 -10z m817 -1 c0 -16 -6 -26 -18 -28
-19 -4 -32 20 -23 44 9 25 41 13 41 -16z m3505 -10 c0 -9 -9 -16 -20 -16 -23
0 -25 9 -9 38 9 17 13 18 20 7 5 -8 9 -21 9 -29z m815 10 c0 -16 -6 -26 -18
-28 -19 -4 -32 20 -23 44 9 25 41 13 41 -16z m-1945 7 c0 7 7 10 15 7 8 -4 15
-13 15 -21 0 -9 -6 -13 -15 -9 -8 3 -15 0 -16 -7 0 -7 -4 -3 -9 8 -12 27 -12
43 0 25 6 -9 10 -11 10 -3z m2615 -15 c6 -4 11 -15 11 -25 2 -13 -1 -15 -11
-7 -10 8 -14 7 -18 -2 -3 -7 -6 -1 -6 15 -1 27 6 33 24 19z m-3608 -64 c-3 -8
-6 -5 -6 6 -1 11 2 17 5 13 3 -3 4 -12 1 -19z m1005 4 c3 -12 -1 -18 -12 -18
-11 0 -15 6 -12 18 2 10 8 18 12 18 4 0 10 -8 12 -18z m975 -4 c-3 -8 -6 -5
-6 6 -1 11 2 17 5 13 3 -3 4 -12 1 -19z m1624 -5 c-8 -3 -9 -8 -3 -12 6 -4 5
-11 -4 -19 -12 -11 -14 -9 -14 13 0 17 5 25 18 24 12 0 13 -2 3 -6z m-6431
-13 c-8 -5 -24 -9 -35 -9 -16 1 -16 2 5 9 35 11 48 11 30 0z m6950 -15 c0 -8
-7 -15 -15 -15 -16 0 -20 12 -8 23 11 12 23 8 23 -8z m-533 -77 c-3 -7 -5 -2
-5 12 0 14 2 19 5 13 2 -7 2 -19 0 -25z m-5897 -28 c0 -6 -73 -10 -200 -10
-127 0 -200 4 -200 10 0 6 73 10 200 10 127 0 200 -4 200 -10z m920 0 c0 -6
-53 -10 -140 -10 -87 0 -140 4 -140 10 0 6 53 10 140 10 87 0 140 -4 140 -10z
m4320 0 c0 -6 -53 -10 -140 -10 -87 0 -140 4 -140 10 0 6 53 10 140 10 87 0
140 -4 140 -10z m-4903 -96 c-3 -3 -12 -4 -19 -1 -8 3 -5 6 6 6 11 1 17 -2 13
-5z m6130 -298 c13 -13 -9 -17 -143 -26 -77 -5 -168 -12 -204 -15 -50 -5 -70
-3 -85 8 -11 9 -16 19 -12 24 5 4 84 11 175 14 184 7 259 5 269 -5z m-1397
-18 c30 1 61 -2 69 -7 29 -18 -3 -30 -87 -32 -231 -5 -217 -6 -220 18 -4 27
20 33 113 26 39 -4 95 -5 125 -5z m186 -9 c9 -15 -13 -28 -37 -22 -20 5 -24
15 -12 26 10 11 41 8 49 -4z m484 -39 c0 -5 -9 -10 -21 -10 -11 0 -17 5 -14
10 3 6 13 10 21 10 8 0 14 -4 14 -10z m-5390 -400 c0 -5 -9 -10 -20 -10 -11 0
-20 5 -20 10 0 6 9 10 20 10 11 0 20 -4 20 -10z m3147 -526 c-3 -3 -12 -4 -19
-1 -8 3 -5 6 6 6 11 1 17 -2 13 -5z m428 -14 c4 -6 -7 -10 -25 -10 -18 0 -29
4 -25 10 3 6 15 10 25 10 10 0 22 -4 25 -10z m-3371 -138 c2 -4 -1 -24 -7 -45
-16 -49 -51 -53 -61 -6 -11 54 -8 59 28 59 19 0 37 -3 40 -8z m-1267 -39 c-3
-10 -5 -4 -5 12 0 17 2 24 5 18 2 -7 2 -21 0 -30z m1743 -18 c0 -8 -2 -15 -4
-15 -2 0 -6 7 -10 15 -3 8 -1 15 4 15 6 0 10 -7 10 -15z m-320 1 c0 -3 -4 -8
-10 -11 -5 -3 -10 -1 -10 4 0 6 5 11 10 11 6 0 10 -2 10 -4z m1230 -11 c0 -8
-4 -15 -10 -15 -5 0 -10 7 -10 15 0 8 5 15 10 15 6 0 10 -7 10 -15z m-2659
-18 c-10 -9 -11 -8 -5 6 3 10 9 15 12 12 3 -3 0 -11 -7 -18z m3930 -50 c-13
-13 -26 -3 -16 12 3 6 11 8 17 5 6 -4 6 -10 -1 -17z m-1526 -177 c-3 -5 -10
-10 -16 -10 -5 0 -9 5 -9 10 0 6 7 10 16 10 8 0 12 -4 9 -10z m-925 -250 c0
-5 -8 -10 -17 -10 -15 0 -16 2 -3 10 19 12 20 12 20 0z m2435 -80 c-3 -5 -11
-10 -16 -10 -6 0 -7 5 -4 10 3 6 11 10 16 10 6 0 7 -4 4 -10z m-4170 -231 c-6
-18 -37 -28 -33 -11 1 4 -4 20 -11 37 -11 25 -10 31 6 43 16 12 19 10 31 -18
7 -18 10 -40 7 -51z m-145 31 c-8 -5 -19 -10 -25 -10 -5 0 -3 5 5 10 8 5 20
10 25 10 6 0 3 -5 -5 -10z m4840 -70 c0 -5 -4 -10 -9 -10 -6 0 -13 5 -16 10
-3 6 1 10 9 10 9 0 16 -4 16 -10z m485 -149 c3 -5 1 -12 -5 -16 -5 -3 -10 1
-10 9 0 18 6 21 15 7z m950 -1 c3 -5 2 -10 -4 -10 -5 0 -13 5 -16 10 -3 6 -2
10 4 10 5 0 13 -4 16 -10z m-6263 -42 c-9 -9 -15 -9 -24 0 -9 9 -7 12 12 12
19 0 21 -3 12 -12z m4626 -66 c2 -7 -7 -12 -22 -12 -27 0 -35 15 -13 23 17 7
30 3 35 -11z m1122 -2 c0 -5 -5 -10 -11 -10 -5 0 -7 5 -4 10 3 6 8 10 11 10 2
0 4 -4 4 -10z m-5740 -180 c0 -5 -4 -10 -10 -10 -5 0 -10 5 -10 10 0 6 5 10
10 10 6 0 10 -4 10 -10z m-290 -98 c0 -13 -12 -22 -22 -16 -10 6 -1 24 13 24
5 0 9 -4 9 -8z m3215 -142 c-3 -5 -12 -10 -18 -10 -7 0 -6 4 3 10 19 12 23 12
15 0z m-1015 -4 c0 -3 -4 -8 -10 -11 -5 -3 -10 -1 -10 4 0 6 5 11 10 11 6 0
10 -2 10 -4z m-2120 -51 c0 -8 -4 -15 -10 -15 -5 0 -10 7 -10 15 0 8 5 15 10
15 6 0 10 -7 10 -15z m6080 -45 c13 -8 13 -10 -2 -10 -9 0 -20 5 -23 10 -8 13
5 13 25 0z m-4055 -51 c0 -41 -2 -44 -27 -47 -27 -3 -28 -2 -28 42 0 34 4 46
18 49 31 8 37 1 37 -44z m-975 -53 c-6 -15 -9 -5 -8 34 0 50 1 52 8 21 5 -19
4 -44 0 -55z m-270 60 c0 -8 -7 -16 -15 -20 -15 -5 -21 14 -8 27 11 12 23 8
23 -7z"/>
<path d="M924 4015 c-11 -26 7 -35 72 -35 68 0 70 1 54 31 -9 15 -22 19 -66
19 -38 0 -56 -4 -60 -15z"/>
<path d="M1120 4006 c0 -24 3 -26 51 -26 47 0 50 2 47 23 -3 19 -10 22 -50 25
-46 3 -48 2 -48 -22z"/>
<path d="M1075 3958 c4 -13 16 -43 26 -68 l18 -45 -2 65 c-2 60 -4 65 -25 68
-21 3 -23 1 -17 -20z"/>
<path d="M1931 4188 c-13 -64 -77 -338 -87 -370 -5 -16 4 -18 86 -18 59 0 89
4 85 10 -4 6 -11 8 -16 5 -5 -4 -9 4 -9 17 0 16 6 24 19 24 12 0 17 -6 14 -17
-3 -9 0 -20 6 -23 8 -5 11 13 11 58 0 35 -5 66 -10 68 -6 2 -25 69 -43 150
-18 81 -36 150 -39 153 -3 3 -11 -23 -17 -57z"/>
<path d="M1590 3920 c0 -5 5 -10 11 -10 5 0 7 5 4 10 -3 6 -8 10 -11 10 -2 0
-4 -4 -4 -10z"/>
<path d="M2740 3535 c0 -11 12 -15 45 -15 33 0 45 4 45 15 0 11 -12 15 -45 15
-33 0 -45 -4 -45 -15z"/>
<path d="M3120 3995 c0 -11 12 -15 50 -15 38 0 50 4 50 15 0 11 -12 15 -50 15
-38 0 -50 -4 -50 -15z"/>
<path d="M3600 3614 c0 -9 5 -14 12 -12 18 6 21 28 4 28 -9 0 -16 -7 -16 -16z"/>
<path d="M5100 3995 c0 -11 12 -15 50 -15 38 0 50 4 50 15 0 11 -12 15 -50 15
-38 0 -50 -4 -50 -15z"/>
<path d="M5580 3614 c0 -17 22 -14 28 4 2 7 -3 12 -12 12 -9 0 -16 -7 -16 -16z"/>
<path d="M6251 4188 c-13 -64 -77 -338 -87 -370 -5 -16 4 -18 86 -18 59 0 89
4 85 10 -4 6 -11 8 -16 5 -5 -4 -9 4 -9 17 0 16 6 24 19 24 12 0 17 -6 14 -17
-3 -9 0 -20 6 -23 8 -5 11 13 11 58 0 35 -5 66 -10 68 -6 2 -25 69 -43 150
-18 81 -36 150 -39 153 -3 3 -11 -23 -17 -57z"/>
<path d="M5910 3920 c0 -5 5 -10 11 -10 5 0 7 5 4 10 -3 6 -8 10 -11 10 -2 0
-4 -4 -4 -10z"/>
<path d="M6960 4115 c0 -23 4 -25 45 -25 41 0 45 2 45 25 0 23 -4 25 -45 25
-41 0 -45 -2 -45 -25z"/>
<path d="M3906 3681 c-4 -7 -5 -15 -2 -18 9 -9 19 4 14 18 -4 11 -6 11 -12 0z"/>
<path d="M2325 3600 c-4 -6 -3 -16 3 -22 6 -6 12 -6 17 2 4 6 3 16 -3 22 -6 6
-12 6 -17 -2z"/>
<path d="M6645 3600 c-4 -6 -3 -16 3 -22 6 -6 12 -6 17 2 4 6 3 16 -3 22 -6 6
-12 6 -17 -2z"/>
</g>
</svg>
